SplineFontDB: 3.0
FontName: NicholasKis
FullName: Nicholas Kis
FamilyName: Nicholas Kis
Weight: Regular
Copyright: Created by trashman with FontForge 2.0 (http://fontforge.sf.net)
UComments: "2010-1-10: Created." 
Version: 001.000
ItalicAngle: 0
UnderlinePosition: -100
UnderlineWidth: 49
Ascent: 800
Descent: 200
LayerCount: 3
Layer: 0 0 "Back"  1
Layer: 1 0 "Fore"  0
Layer: 2 0 "backup"  0
NeedsXUIDChange: 1
XUID: [1021 658 797806517 2478896]
OS2Version: 0
OS2_WeightWidthSlopeOnly: 0
OS2_UseTypoMetrics: 1
CreationTime: 1263111985
ModificationTime: 1263170548
OS2TypoAscent: 0
OS2TypoAOffset: 1
OS2TypoDescent: 0
OS2TypoDOffset: 1
OS2TypoLinegap: 0
OS2WinAscent: 0
OS2WinAOffset: 1
OS2WinDescent: 0
OS2WinDOffset: 1
HheadAscent: 0
HheadAOffset: 1
HheadDescent: 0
HheadDOffset: 1
OS2Vendor: 'PfEd'
MarkAttachClasses: 1
DEI: 91125
LangName: 1033 
Encoding: UnicodeBmp
UnicodeInterp: none
NameList: Adobe Glyph List
DisplaySize: -72
AntiAlias: 1
FitToEm: 1
WinInfo: 56 8 6
BeginChars: 65536 53

StartChar: a
Encoding: 97 97 0
Width: 363
VWidth: 0
Flags: HW
LayerCount: 3
Fore
SplineSet
338 65 m 0
 344 65 348 61 348 53 c 0
 348 20 292 -5 271 -5 c 0
 238 -5 226 29 222 34 c 1
 222 34 166 -8 117 -8 c 0
 68 -8 31 23 31 67 c 0
 31 124 102 151 163 175 c 0
 213 195 223 191 223 209 c 0
 223 303 216 337 159 337 c 0
 151 337 119 334 103 321 c 0
 98 317 96 312 96 303 c 0
 96 296 99 283 99 271 c 0
 99 254 85 231 61 231 c 0
 45 231 26 246 26 269 c 0
 26 326 147 376 205 376 c 0
 251 376 288 346 288 300 c 2
 288 100 l 2
 288 59 300 46 313 46 c 0
 327 46 327 65 338 65 c 0
143 138 m 0
 124 129 104 108 104 83 c 0
 104 57 119 30 146 30 c 0
 179 30 220 61 220 67 c 2
 220 155 l 2
 220 163 220 166 217 166 c 0
 202 166 151 142 143 138 c 0
EndSplineSet
EndChar

StartChar: M
Encoding: 77 77 1
Width: 822
VWidth: 0
Flags: HW
LayerCount: 3
Fore
SplineSet
184 492 m 0
 169 492 117 84 117 59 c 0
 117 39 130 35 143 30 c 0
 165 21 175 21 175 9 c 0
 175 2 172 -3 162 -3 c 0
 150 -3 116 2 99 2 c 0
 67 2 58 0 48 0 c 0
 37 0 31 7 31 13 c 0
 31 22 36 25 44 27 c 0
 59 31 80 38 83 58 c 2
 144 467 l 2
 153 527 154 527 154 532 c 0
 154 540 147 560 124 563 c 0
 96 566 75 564 75 578 c 0
 75 599 86 600 98 600 c 0
 115 600 143 597 166 597 c 2
 222 597 l 2
 237 597 244 590 250 573 c 2
 356 278 l 2
 386 196 412 129 416 129 c 0
 418 129 440 177 468 240 c 2
 625 587 l 2
 628 593 638 594 646 594 c 0
 661 594 690 593 700 593 c 0
 729 593 757 597 766 597 c 0
 772 597 780 596 780 583 c 0
 780 572 781 566 761 565 c 0
 719 562 707 562 707 519 c 0
 707 431 721 129 721 129 c 2
 722 101 726 75 728 52 c 0
 729 42 734 29 751 25 c 0
 779 18 797 25 797 6 c 0
 797 -2 787 -3 781 -3 c 0
 760 -3 719 1 677 1 c 0
 652 1 594 -4 566 -4 c 0
 555 -4 553 2 553 7 c 0
 553 27 563 18 617 26 c 0
 637 29 639 50 639 99 c 0
 639 116 630 495 621 495 c 0
 612 495 586 431 553 360 c 0
 496 237 430 94 395 13 c 0
 392 5 387 3 381 3 c 2
 378 3 l 2
 368 3 360 19 351 47 c 0
 334 98 302 188 271 272 c 0
 230 381 191 492 184 492 c 0
EndSplineSet
EndChar

StartChar: b
Encoding: 98 98 2
Width: 232
VWidth: 0
Flags: HW
LayerCount: 3
Fore
SplineSet
76 186 m 0
 76 208 94 226 116 226 c 0
 138 226 156 208 156 186 c 0
 156 164 138 146 116 146 c 0
 94 146 76 164 76 186 c 0
EndSplineSet
EndChar

StartChar: c
Encoding: 99 99 3
Width: 232
VWidth: 0
Flags: HW
LayerCount: 3
Fore
SplineSet
76 186 m 4
 76 208 94 226 116 226 c 4
 138 226 156 208 156 186 c 4
 156 164 138 146 116 146 c 4
 94 146 76 164 76 186 c 4
EndSplineSet
EndChar

StartChar: d
Encoding: 100 100 4
Width: 232
VWidth: 0
Flags: HW
LayerCount: 3
Fore
SplineSet
76 186 m 4
 76 208 94 226 116 226 c 4
 138 226 156 208 156 186 c 4
 156 164 138 146 116 146 c 4
 94 146 76 164 76 186 c 4
EndSplineSet
EndChar

StartChar: e
Encoding: 101 101 5
Width: 232
VWidth: 0
Flags: HW
LayerCount: 3
Fore
SplineSet
76 186 m 4
 76 208 94 226 116 226 c 4
 138 226 156 208 156 186 c 4
 156 164 138 146 116 146 c 4
 94 146 76 164 76 186 c 4
EndSplineSet
EndChar

StartChar: f
Encoding: 102 102 6
Width: 232
VWidth: 0
Flags: HW
LayerCount: 3
Fore
SplineSet
76 186 m 4
 76 208 94 226 116 226 c 4
 138 226 156 208 156 186 c 4
 156 164 138 146 116 146 c 4
 94 146 76 164 76 186 c 4
EndSplineSet
EndChar

StartChar: g
Encoding: 103 103 7
Width: 232
VWidth: 0
Flags: HW
LayerCount: 3
Fore
SplineSet
76 186 m 4
 76 208 94 226 116 226 c 4
 138 226 156 208 156 186 c 4
 156 164 138 146 116 146 c 4
 94 146 76 164 76 186 c 4
EndSplineSet
EndChar

StartChar: h
Encoding: 104 104 8
Width: 232
VWidth: 0
Flags: HW
LayerCount: 3
Fore
SplineSet
76 186 m 4
 76 208 94 226 116 226 c 4
 138 226 156 208 156 186 c 4
 156 164 138 146 116 146 c 4
 94 146 76 164 76 186 c 4
EndSplineSet
EndChar

StartChar: i
Encoding: 105 105 9
Width: 232
VWidth: 0
Flags: HW
LayerCount: 3
Fore
SplineSet
76 186 m 4
 76 208 94 226 116 226 c 4
 138 226 156 208 156 186 c 4
 156 164 138 146 116 146 c 4
 94 146 76 164 76 186 c 4
EndSplineSet
EndChar

StartChar: j
Encoding: 106 106 10
Width: 232
VWidth: 0
Flags: HW
LayerCount: 3
Fore
SplineSet
76 186 m 4
 76 208 94 226 116 226 c 4
 138 226 156 208 156 186 c 4
 156 164 138 146 116 146 c 4
 94 146 76 164 76 186 c 4
EndSplineSet
EndChar

StartChar: k
Encoding: 107 107 11
Width: 232
VWidth: 0
Flags: HW
LayerCount: 3
Fore
SplineSet
76 186 m 4
 76 208 94 226 116 226 c 4
 138 226 156 208 156 186 c 4
 156 164 138 146 116 146 c 4
 94 146 76 164 76 186 c 4
EndSplineSet
EndChar

StartChar: l
Encoding: 108 108 12
Width: 232
VWidth: 0
Flags: HW
LayerCount: 3
Fore
SplineSet
76 186 m 4
 76 208 94 226 116 226 c 4
 138 226 156 208 156 186 c 4
 156 164 138 146 116 146 c 4
 94 146 76 164 76 186 c 4
EndSplineSet
EndChar

StartChar: m
Encoding: 109 109 13
Width: 232
VWidth: 0
Flags: HW
LayerCount: 3
Fore
SplineSet
76 186 m 4
 76 208 94 226 116 226 c 4
 138 226 156 208 156 186 c 4
 156 164 138 146 116 146 c 4
 94 146 76 164 76 186 c 4
EndSplineSet
EndChar

StartChar: n
Encoding: 110 110 14
Width: 232
VWidth: 0
Flags: HW
LayerCount: 3
Fore
SplineSet
76 186 m 4
 76 208 94 226 116 226 c 4
 138 226 156 208 156 186 c 4
 156 164 138 146 116 146 c 4
 94 146 76 164 76 186 c 4
EndSplineSet
EndChar

StartChar: o
Encoding: 111 111 15
Width: 232
VWidth: 0
Flags: HW
LayerCount: 3
Fore
SplineSet
76 186 m 4
 76 208 94 226 116 226 c 4
 138 226 156 208 156 186 c 4
 156 164 138 146 116 146 c 4
 94 146 76 164 76 186 c 4
EndSplineSet
EndChar

StartChar: p
Encoding: 112 112 16
Width: 232
VWidth: 0
Flags: HW
LayerCount: 3
Fore
SplineSet
76 186 m 4
 76 208 94 226 116 226 c 4
 138 226 156 208 156 186 c 4
 156 164 138 146 116 146 c 4
 94 146 76 164 76 186 c 4
EndSplineSet
EndChar

StartChar: q
Encoding: 113 113 17
Width: 232
VWidth: 0
Flags: HW
LayerCount: 3
Fore
SplineSet
76 186 m 4
 76 208 94 226 116 226 c 4
 138 226 156 208 156 186 c 4
 156 164 138 146 116 146 c 4
 94 146 76 164 76 186 c 4
EndSplineSet
EndChar

StartChar: r
Encoding: 114 114 18
Width: 232
VWidth: 0
Flags: HW
LayerCount: 3
Fore
SplineSet
76 186 m 4
 76 208 94 226 116 226 c 4
 138 226 156 208 156 186 c 4
 156 164 138 146 116 146 c 4
 94 146 76 164 76 186 c 4
EndSplineSet
EndChar

StartChar: s
Encoding: 115 115 19
Width: 232
VWidth: 0
Flags: HW
LayerCount: 3
Fore
SplineSet
76 186 m 4
 76 208 94 226 116 226 c 4
 138 226 156 208 156 186 c 4
 156 164 138 146 116 146 c 4
 94 146 76 164 76 186 c 4
EndSplineSet
EndChar

StartChar: t
Encoding: 116 116 20
Width: 232
VWidth: 0
Flags: HW
LayerCount: 3
Fore
SplineSet
76 186 m 4
 76 208 94 226 116 226 c 4
 138 226 156 208 156 186 c 4
 156 164 138 146 116 146 c 4
 94 146 76 164 76 186 c 4
EndSplineSet
EndChar

StartChar: u
Encoding: 117 117 21
Width: 232
VWidth: 0
Flags: HW
LayerCount: 3
Fore
SplineSet
76 186 m 4
 76 208 94 226 116 226 c 4
 138 226 156 208 156 186 c 4
 156 164 138 146 116 146 c 4
 94 146 76 164 76 186 c 4
EndSplineSet
EndChar

StartChar: v
Encoding: 118 118 22
Width: 232
VWidth: 0
Flags: HW
LayerCount: 3
Fore
SplineSet
76 186 m 4
 76 208 94 226 116 226 c 4
 138 226 156 208 156 186 c 4
 156 164 138 146 116 146 c 4
 94 146 76 164 76 186 c 4
EndSplineSet
EndChar

StartChar: w
Encoding: 119 119 23
Width: 232
VWidth: 0
Flags: HW
LayerCount: 3
Fore
SplineSet
76 186 m 0
 76 208 94 226 116 226 c 0
 138 226 156 208 156 186 c 0
 156 164 138 146 116 146 c 0
 94 146 76 164 76 186 c 0
EndSplineSet
EndChar

StartChar: x
Encoding: 120 120 24
Width: 232
VWidth: 0
Flags: HW
LayerCount: 3
Fore
SplineSet
76 186 m 4
 76 208 94 226 116 226 c 4
 138 226 156 208 156 186 c 4
 156 164 138 146 116 146 c 4
 94 146 76 164 76 186 c 4
EndSplineSet
EndChar

StartChar: y
Encoding: 121 121 25
Width: 232
VWidth: 0
Flags: HW
LayerCount: 3
Fore
SplineSet
76 186 m 4
 76 208 94 226 116 226 c 4
 138 226 156 208 156 186 c 4
 156 164 138 146 116 146 c 4
 94 146 76 164 76 186 c 4
EndSplineSet
EndChar

StartChar: z
Encoding: 122 122 26
Width: 232
VWidth: 0
Flags: HW
LayerCount: 3
Fore
SplineSet
76 186 m 4
 76 208 94 226 116 226 c 4
 138 226 156 208 156 186 c 4
 156 164 138 146 116 146 c 4
 94 146 76 164 76 186 c 4
EndSplineSet
EndChar

